<?xml version="1.0" standalone="no"?>
<!DOCTYPE svg PUBLIC "-//W3C//DTD SVG 1.1//EN" "http://www.w3.org/Graphics/SVG/1.1/DTD/svg11.dtd" >
<svg xmlns="http://www.w3.org/2000/svg">
<metadata>
Created by FontForge 20120731 at Wed Aug 17 17:36:59 2016
 By admin
</metadata>
<defs>
<font id="iconfont" horiz-adv-x="1024" >
  <font-face 
    font-family="iconfont"
    font-weight="500"
    font-stretch="normal"
    units-per-em="1024"
    panose-1="2 0 6 3 0 0 0 0 0 0"
    ascent="896"
    descent="-128"
    x-height="792"
    bbox="0 -212 1024 896"
    underline-thickness="50"
    underline-position="-100"
    unicode-range="U+0078-E628"
  />
<missing-glyph horiz-adv-x="374" 
d="M34 0v682h272v-682h-272zM68 34h204v614h-204v-614z" />
    <glyph glyph-name=".notdef" horiz-adv-x="374" 
d="M34 0v682h272v-682h-272zM68 34h204v614h-204v-614z" />
    <glyph glyph-name=".null" horiz-adv-x="0" 
 />
    <glyph glyph-name="nonmarkingreturn" horiz-adv-x="341" 
 />
    <glyph glyph-name="x" unicode="x" horiz-adv-x="1001" 
d="M281 543q-27 -1 -53 -1h-83q-18 0 -36.5 -6t-32.5 -18.5t-23 -32t-9 -45.5v-76h912v41q0 16 -0.5 30t-0.5 18q0 13 -5 29t-17 29.5t-31.5 22.5t-49.5 9h-133v-97h-438v97zM955 310v-52q0 -23 0.5 -52t0.5 -58t-10.5 -47.5t-26 -30t-33 -16t-31.5 -4.5q-14 -1 -29.5 -0.5
t-29.5 0.5h-32l-45 128h-439l-44 -128h-29h-34q-20 0 -45 1q-25 0 -41 9.5t-25.5 23t-13.5 29.5t-4 30v167h911zM163 247q-12 0 -21 -8.5t-9 -21.5t9 -21.5t21 -8.5q13 0 22 8.5t9 21.5t-9 21.5t-22 8.5zM316 123q-8 -26 -14 -48q-5 -19 -10.5 -37t-7.5 -25t-3 -15t1 -14.5
t9.5 -10.5t21.5 -4h37h67h81h80h64h36q23 0 34 12t2 38q-5 13 -9.5 30.5t-9.5 34.5q-5 19 -11 39h-368zM336 498v228q0 11 2.5 23t10 21.5t20.5 15.5t34 6h188q31 0 51.5 -14.5t20.5 -52.5v-227h-327z" />
    <glyph glyph-name="uniE600" unicode="&#xe600;" 
d="M82 -201q3 -3 9.5 -6t30.5 -3.5t51 9.5l462 521v11l-72 61h-10l-512 -451q-2 -1 -4 -3.5t-7 -11t-7.5 -17.5t-1 -22.5t9.5 -27.5zM121 -115zM81 -114.5q0 16.5 11.5 28t28.5 11.5t28.5 -11.5t11.5 -28t-11.5 -28.5t-28.5 -12t-28.5 12t-11.5 28.5zM952 -88q1 1 3 3.5
t6.5 11t5.5 16.5t-2 19t-13 21l-246 245q-3 2 -8 5.5t-18.5 4t-24.5 -9.5l-30 -31h-11l-379 389h-10v93l-153 91l-72 -81l92 -144l93 1v-10l378 -389v-11l-20 -21q-2 -1 -4 -3t-6 -8.5t-5.5 -13.5t2 -16.5t12.5 -19.5q15 -14 76.5 -78t115.5 -120l55 -57q3 -3 8 -6
t18.5 -3.5t23.5 9.5q5 5 33.5 33t54 53.5t25.5 26.5zM635 320h20q5 -2 13.5 -6t34 -11.5t50 -11t57.5 1t60 19.5q4 1 10.5 5t24.5 16.5t34 26.5t34.5 36.5t30.5 46.5q20 34 20 110l-3 55q-9 66 -37 29q-12 -15 -30 -36.5t-35.5 -40.5t-33 -36.5t-24.5 -27.5l-10 -10l-22 -3
l-131 133l-2 21l142 133l16 12q18 19 -25 26q-23 4 -60 4q-6 0 -14.5 -1t-34.5 -7.5t-49.5 -16t-53 -29t-50.5 -44.5t-37 -65.5t-18 -88.5q0 -4 -0.5 -10t0.5 -24t4.5 -35t13 -39t22.5 -39l1 -21z" />
    <glyph glyph-name="uniE601" unicode="&#xe601;" horiz-adv-x="1152" 
d="M996 626q0 -19 -11 -33t-26 -14h-764q-15 0 -26 14t-11 33q0 18 11 32t26 14h764q15 0 26 -14t11 -32zM996 300q0 -19 -11 -33t-26 -14h-764q-15 0 -26 14t-11 33t11 33t26 14h764q15 0 26 -14t11 -33zM996 -26q0 -18 -11 -32t-26 -14h-764q-15 0 -26 14t-11 32
q0 19 11 33t26 14h764q15 0 26 -14t11 -33z" />
    <glyph glyph-name="uniE602" unicode="&#xe602;" 
d="M256 429h127v127h-127v-127zM831 812h-639q-80 0 -136 -56t-56 -136v-639q0 -79 56 -135.5t136 -56.5h639q79 0 135.5 56.5t56.5 135.5v639q0 80 -56.5 136t-135.5 56zM895 -19q0 -26 -19 -45t-45 -19h-639q-27 0 -45.5 19t-18.5 45v639q0 27 18.5 45.5t45.5 18.5h639
q26 0 45 -18.5t19 -45.5v-639zM256 45h127v128h-127v-128zM256 237h127v128h-127v-128zM447 429h320v127h-320v-127zM447 237h320v128h-320v-128zM447 45h320v128h-320v-128z" />
    <glyph glyph-name="uniE603" unicode="&#xe603;" 
d="M921 288l-314 -279v170h-306v219h306v169zM218 97h306v-89h-397v560h397v-89h-306v-382z" />
    <glyph glyph-name="uniE604" unicode="&#xe604;" 
d="M1024 -41l-427 213v61q76 31 123.5 107.5t47.5 172.5q0 115 -25.5 179.5t-80 92t-150.5 27.5q-97 0 -151.5 -27.5t-79.5 -92t-25 -179.5q0 -96 47.5 -172.5t123.5 -107.5v-61l-427 -213v-171h1024v171z" />
    <glyph glyph-name="uniE605" unicode="&#xe605;" 
d="M574 -146q-23 -2 -50.5 -2t-44.5 1l-16 1q-7 1 -18 1.5t-43 6t-61 14.5t-64.5 28.5t-61 45t-43 66t-17.5 90.5t17 99.5t41.5 87.5t58.5 74.5t62 60t59 45t41.5 27.5t16.5 9h136q6 -4 16 -11t39 -31t55.5 -49.5t59 -63.5t56 -76t39.5 -85t16 -91.5t-16 -82t-42 -62.5
t-57.5 -44.5t-63 -30.5t-57 -17.5t-42.5 -8.5zM451 525v48h136v-48h-136zM585 589h-132l-70 158q42 -32 67 -32q11 0 28.5 8.5t28.5 16.5l12 8q40 -33 66 -33q11 0 28.5 8.5t28.5 17.5l12 8zM478 -6h61v59h82v48h-82v26h82v49h-57l68 137h-67l-44 -93q-8 -16 -12 -30
q-4 13 -12 30l-43 93h-68l68 -137h-57v-49h81v-26h-81v-48h81v-59z" />
    <glyph glyph-name="uniE606" unicode="&#xe606;" 
d="M225 552h481v-54h-481v54zM892 37q5 6 9 14q4 7 -3 14l-7 7l-7 7q-8 6 -15 2t-15 -11q-18 -19 -35 -35l-33 -33q-6 -5 -12.5 -6t-10.5 4l-8 8q-5 6 -10 11l-11 13q-6 6 -7 8q-5 3 -11 4.5t-12 -4.5l-4 -3q-3 -2 -6 -6t-7 -6l-3 -4q-12 -12 3 -29q4 -5 12 -13q8 -9 17 -18
q12 -13 17 -18q9 -9 15 -14q6 -7 17 -6.5t17 6.5l25 25l29 29q15 15 30 29.5t26 24.5zM786 193q35 0 66 -13t55 -37q24 -23 37.5 -54t13.5 -66q0 -36 -14 -67q-13 -31 -37 -55q-24 -23 -55 -36t-66 -13q-37 0 -68 13t-55 36q-23 24 -37 55t-14 67q0 35 14 66t37 54
q24 23 55 37q31 13 68 13zM225 445h481v-54h-481v54zM171 605h57h456h76v-267h-589v267zM64 -41q0 -20 16 -34.5t38 -14.5h493q-34 51 -34 113q0 86 61 146.5t147 60.5q43 0 82 -17v125h-54v321v53h-695v-53v-321h-54v-379z" />
    <glyph glyph-name="uniE607" unicode="&#xe607;" 
d="M420 806h180v-664h-180v664zM180 498h180v-356h-180v356zM660 617h180v-475h-180v475zM64 79h896v-117h-896v117zM486 736h114v-594h-114v594zM246 431h114v-289h-114v289zM726 555h114v-413h-114v413zM123 20h837v-58h-837v58z" />
    <glyph glyph-name="uniE608" unicode="&#xe608;" 
d="M512 811q-104 0 -198.5 -40.5t-163 -109t-109.5 -163.5t-41 -199t41 -198.5t109.5 -163t163 -109t198.5 -40.5t198.5 40.5t163 109t109 163t40.5 198.5t-40.5 199t-109 163.5t-163 109t-198.5 40.5zM512 -148q-91 0 -174 35.5t-143 95.5t-95.5 143t-35.5 173.5
t35.5 173.5t95.5 143t143 95.5t174 35.5t173.5 -35.5t142.5 -95.5t95.5 -143t35.5 -173.5t-35.5 -173.5t-95.5 -143t-142.5 -95.5t-173.5 -35.5zM710 174q14 0 24.5 -8t10.5 -20q0 -11 -10.5 -19t-24.5 -8h-170v-95q0 -11 -10 -19t-25 -8t-25 8t-10 19v95h-170
q-14 0 -23.5 8.5t-9.5 19.5t9.5 19t23.5 8h170v82h-170q-14 0 -23.5 8t-9.5 20q0 11 9.5 18.5t23.5 7.5h144l-148 218q-8 9 -3 19.5t19 16.5q12 4 25.5 1t19.5 -12l150 -219l148 220q7 9 20.5 12.5t26.5 -2.5q13 -5 17 -15.5t-2 -19.5v1l-149 -220h142q14 0 24.5 -8
t10.5 -19.5t-10.5 -19t-24.5 -7.5h-170v-82h170zM710 174z" />
    <glyph glyph-name="uniE609" unicode="&#xe609;" 
d="M46 73h146v73h-73v293h73v73h-146v-439zM265 0h146v73h-73v439h73v73h-146v-585zM486 681v-777h518v777h-518zM554 -16v617h382v-617h-382z" />
    <glyph glyph-name="uniE60A" unicode="&#xe60a;" 
d="M853 625h-92v-152h-502v152h-91q-14 0 -24 -10.5t-10 -24.5v-703q0 -14 10 -24t24 -10h685q14 0 24 10t10 24v703q0 14 -10 24.5t-24 10.5zM777 331l-297 -364q1 -3 -2.5 -3.5t-7.5 2.5l-216 177q-8 7 -1 15l36 44q6 8 15 1l164 -135l254 311q6 10 14 3l42 -34
q8 -7 -1 -17zM639 669v27q0 22 -15 37t-36 15h-155q-21 0 -36 -15t-15 -37v-27h-60v-138h376v138h-59zM511 581q-23 0 -40 16.5t-17 40t17 40t40 16.5t39.5 -16.5t16.5 -39.5q0 -26 -16 -41.5t-40 -15.5z" />
    <glyph glyph-name="uniE60B" unicode="&#xe60b;" 
d="M950 762h-873q-31 0 -53 -22t-22 -53v-604q0 -31 22 -53t53 -22h873q30 0 52 22t22 53v604q0 31 -22 53t-52 22zM931 159q0 -24 -16.5 -40.5t-39.5 -16.5h-724q-23 0 -39.5 16.5t-16.5 40.5v452q0 24 16.5 40.5t39.5 16.5h724q23 0 39.5 -16.5t16.5 -40.5v-452zM931 159z
M290 376q46 0 79 33t33 80t-33 80t-79 33t-78.5 -33t-32.5 -80t32.5 -80t78.5 -33zM290 376zM848 272h-298q-15 0 -26 -11t-11 -26.5t11 -26.5t26 -11h298q15 0 26 11t11 26.5t-11 26.5t-26 11zM848 272zM383 347h-186q-23 0 -39 -16.5t-16 -39.5v-123h297v123
q0 23 -16.5 39.5t-39.5 16.5zM383 347zM848 423h-298q-15 0 -26 -11t-11 -27t11 -27t26 -11h298q15 0 26 11t11 27t-11 27t-26 11zM848 423zM848 574h-298q-15 0 -26 -11.5t-11 -27t11 -26.5t26 -11h298q15 0 26 11t11 26.5t-11 27t-26 11.5zM848 574z" />
    <glyph glyph-name="uniE60C" unicode="&#xe60c;" 
d="M860 719h-601q-8 0 -14 -7t-6 -17q0 -11 7 -17.5t17 -6.5h601q10 0 16.5 6.5t6.5 17.5q-6 24 -27 24zM300 463q4 0 7.5 2.5t3.5 7.5q0 3 -3 6.5t-8 3.5q-3 0 -6.5 -3t-3.5 -7q5 -10 10 -10zM300 316q-3 0 -6.5 -3t-3.5 -8q0 -3 3 -6.5t7 -3.5t7.5 3t3.5 7q0 11 -11 11z
M300 152q-3 0 -6.5 -3t-3.5 -7q0 -11 10 -11q4 0 7.5 3t3.5 8q0 10 -11 10zM188 694.5q0 28.5 20 50t48 21.5h604q10 0 17 7t7 17t-7 17t-17 7h-604q-49 -2 -82.5 -36.5t-33.5 -82.5v-622q0 -48 33.5 -82t82.5 -34h628v666h-628q-28 0 -48 21.5t-20 50zM300 87
q-23 0 -38.5 16t-15.5 39t15.5 38.5t38.5 15.5t39 -15.5t16 -38.5t-16 -39t-39 -16zM300 251q-23 0 -38.5 15.5t-15.5 39t15.5 39t38.5 15.5t39 -15.5t16 -39.5q0 -21 -16 -37.5t-39 -16.5zM406 493h348q11 0 17.5 -6.5t6.5 -17t-6.5 -17.5t-17.5 -7h-348q-10 0 -17 7
t-7 17.5t7 17t17 6.5zM406 329h348q11 0 17.5 -6.5t6.5 -17t-6.5 -17t-17.5 -6.5h-348q-10 0 -17 6.5t-7 17t7 17t17 6.5zM406 166h348q11 0 17.5 -7t6.5 -17.5t-6.5 -17t-17.5 -6.5h-348q-10 0 -17 6.5t-7 17t7 17.5t17 7zM300 527q23 0 39 -15.5t16 -38.5t-16 -39t-39 -16
t-38.5 16t-15.5 39q0 21 16 37.5t38 16.5z" />
    <glyph glyph-name="uniE60D" unicode="&#xe60d;" 
d="M63 728l15 -28h864l16 28h-895zM431 576v-525l66 -121v742h-404l52 -96h286zM391 548h-230l52 -96h116v-214l75 -138v448h-13zM630 548h-14v-448l75 138v214h117l52 96h-169h-61zM589 576h286l52 96h-403v-742l65 121v525z" />
    <glyph glyph-name="uniE60E" unicode="&#xe60e;" 
d="M960 243v112h-117q-12 76 -57 138l82 83l-79 79l-82 -83q-62 45 -138 58v116h-112v-116q-76 -13 -138 -58l-83 83l-79 -79l83 -83q-45 -62 -58 -138h-116v-112h116q13 -76 58 -138l-83 -83l79 -79l83 83q62 -45 138 -58v-116h112v116q76 13 138 58l82 -83l79 79l-82 83
q45 62 57 138h117zM513 76q-93 0 -158.5 65t-65.5 158t65.5 158t158.5 65t158 -65t65 -158t-65 -158t-158 -65zM513 355q-23 0 -39.5 -16.5t-16.5 -39.5t16.5 -39.5t39.5 -16.5t39.5 16.5t16.5 39.5t-16.5 39.5t-39.5 16.5z" />
    <glyph glyph-name="uniE60F" unicode="&#xe60f;" 
d="M512 813q-116 0 -215 -57.5t-156.5 -156.5t-57.5 -215t57.5 -215t156.5 -156.5t215 -57.5t215 57.5t156.5 156.5t57.5 215t-57.5 215t-156.5 156.5t-215 57.5zM512 -128q-104 0 -199 40.5t-163.5 109t-109 163.5t-40.5 199t40.5 199t109 163.5t163.5 109t199 40.5
t199 -40.5t163.5 -109t109 -163.5t40.5 -199t-40.5 -199t-109 -163.5t-163.5 -109t-199 -40.5zM456 120h101v104h-101v-104zM625 595q-45 39 -112 39q-32 0 -62 -10t-55 -32t-36 -51q-11 -28 -12 -78l-1 -19h95v18q0 45 16.5 65.5t52.5 20.5q31 0 46 -16q15 -17 15 -39
q0 -23 -6 -33q-8 -13 -37 -43q-32 -33 -45 -50q-13 -20 -20 -45q-7 -24 -7 -64v-18h95v19q-1 29 4 44q5 16 13 26q10 13 43 44q35 34 47 59t12 55q0 67 -46 108z" />
    <glyph glyph-name="uniE610" unicode="&#xe610;" 
d="M128 95h585v431h-585v-431zM218 557h526v-369h61v430h-585zM313 711l-2 -62h525v-369h61v431h-584z" />
    <glyph glyph-name="uniE611" unicode="&#xe611;" 
d="M670 770h-448v-768h321v64h-257v640h321v-97h129v-353h64v388zM736 192h-64v-64h-65v-64h65v-62h64v64h64v62h-64v64z" />
    <glyph glyph-name="uniE612" unicode="&#xe612;" 
d="M502 479l102 -102l192 192l100 -99v296l-299 2l97 -97zM894 348l-73 75l1 -345l-614 -1v613l344 1l-77 77h-268q-32 0 -54.5 -22.5t-22.5 -54.5v-613q0 -32 22.5 -54.5t54.5 -22.5h613q32 0 54.5 22.5t22.5 54.5z" />
    <glyph glyph-name="uniE613" unicode="&#xe613;" 
d="M157 767h-29v-765h769v30l-739 2zM542 735q0 14 -9 23t-21 9h-88q-13 0 -21.5 -9t-8.5 -23v-638h148v638zM364 544q0 13 -8.5 22.5t-20.5 9.5h-89q-12 0 -20.5 -9.5t-8.5 -22.5v-447h147v447zM719 353q0 13 -8.5 22t-20.5 9h-89q-12 0 -21 -9t-9 -22v-256h148v256z
M867 193h-89q-12 0 -20.5 -9.5t-8.5 -22.5v-64h148v64q0 13 -9 22.5t-21 9.5z" />
    <glyph glyph-name="uniE614" unicode="&#xe614;" 
d="M128 571h192v184h-192v-184zM416 571h192v184h-192v-184zM704 755v-184h192v184h-192zM128 295h192v184h-192v-184zM416 295h192v184h-192v-184zM704 295h192v184h-192v-184zM128 19h192v184h-192v-184zM416 19h192v184h-192v-184zM704 19h192v184h-192v-184z" />
    <glyph glyph-name="uniE615" unicode="&#xe615;" 
d="M865 670h-708q-12 0 -21 7.5t-9 17.5t9 17.5t21 7.5h324v24q0 10 9 17.5t22 7.5t22 -7.5t9 -17.5v-24h322q13 0 22 -7.5t9 -17.5t-9 -17.5t-22 -7.5zM865 274h-276h-61h-31h-62h-278v371h708v-371zM250 471.5q0 -41.5 36 -70.5t87 -29t87 29t36 70h-123v100
q-51 0 -87 -29t-36 -70.5zM589 571h-31v-25h31v25zM589 522h-31v-25h31v25zM589 472h-31v-25h31v25zM589 423h-31v-25h31v25zM589 373h-31v-24h31v24zM773 571h-153v-25h153v25zM773 522h-153v-25h153v25zM773 472h-153v-25h153v25zM773 423h-153v-25h153v25zM773 373h-153
v-24h153v24zM428 151h69v123h31v-123h68l-68 123h61l123 -222h-62l-41 74h-81v-124h-31v124h-83l-42 -74h-61l124 222h62zM528 274zM497 274z" />
    <glyph glyph-name="uniE616" unicode="&#xe616;" 
d="M853 2h-121q-16 0 -28 10t-12 25v69q0 15 12 25t28 10h81v208h-282v-208h40q17 0 28.5 -10t11.5 -25v-69q0 -15 -11.5 -25t-28.5 -10h-121q-16 0 -28 10t-12 25v69q0 15 12 25t28 10h41v208h-282v-208h80q17 0 28.5 -10t11.5 -25v-69q0 -15 -11.5 -25t-28.5 -10h-121
q-16 0 -28 10t-12 25v69q0 15 12 25t28 10v208v35h41h282v243h-41q-16 0 -28 10t-12 25v69q0 15 12 25t28 10h121q17 0 28.5 -10t11.5 -25v-69q0 -15 -11.5 -25t-28.5 -10h-40v-243h282h40v-35v-208q17 0 28.5 -10t11.5 -25v-69q0 -15 -11.5 -25t-28.5 -10z" />
    <glyph glyph-name="uniE617" unicode="&#xe617;" 
d="M520.5 449q66.5 0 113.5 46.5t47 112.5t-47 113t-113.5 47t-113.5 -47t-47 -113t47 -112.5t113.5 -46.5zM674 398h-109l-44 -72l-44 72h-125q-47 -1 -85 -11.5t-60.5 -24.5t-39 -34.5t-23.5 -35t-10.5 -34t-4 -23t-0.5 -9.5v-222h136v192h43v-192h406v194h44v-194h135
v222q-3 35 -16.5 64t-33 46.5t-42.5 30t-45.5 18.5t-40.5 9t-29 4h-12z" />
    <glyph glyph-name="uniE618" unicode="&#xe618;" 
d="M165 769h-36v-768h729v32l-693 2v734zM238 101h182v363l-182 -167v-196zM457 464v-363h182v330l-73 -67zM676 101h182v507l-182 -167v-340zM434 566l132 -120l261 237l67 -61l-2 147l-161 -1l63 -58l-228 -208l-134 123l-205 -187l34 -30z" />
    <glyph glyph-name="uniE619" unicode="&#xe619;" 
d="M554 435q0 84 0.5 167.5t-0.5 167.5q147 0 244 -95.5t97 -239.5h-341zM866 366q0 -99 -49.5 -182.5t-134.5 -132t-185 -48.5t-185 48.5t-134.5 132t-49.5 182.5t49.5 182.5t134.5 132t185 48.5q10 0 28 -1v-321h339q2 -19 2 -41zM836 377h-339v324q-92 0 -170.5 -45
t-124.5 -122t-46 -168t46 -168t124.5 -122t171 -45t171 45t124 122t45.5 168l-1 18z" />
    <glyph glyph-name="uniE61A" unicode="&#xe61a;" 
d="M836 329v85h59v-85h-59zM836 526h59v-85h-59v85zM836 639h59v-85h-59v85zM748 16h-531q-24 0 -41.5 16.5t-17.5 40.5h15q18 0 31 12.5t13 30t-13 30t-31 12.5h-15v28h15q18 0 31 12.5t13 30t-13 30t-31 12.5h-15v28h15q18 0 31 12.5t13 30t-13 30t-31 12.5h-15v29h15
q18 0 31 12t13 30t-13 30.5t-31 12.5h-15v28h15q18 0 31 12.5t13 30t-13 30t-31 12.5h-15v85q0 23 17.5 39.5t41.5 16.5h531q34 0 51 -28h-582q-12 0 -20.5 -8.5t-8.5 -20t8.5 -20t20.5 -8.5h590v-594q0 -24 -17.5 -40.5t-41.5 -16.5zM497.5 567q-26.5 0 -45.5 -24t-19 -58
t19 -57.5t45.5 -23.5t45.5 23.5t19 57.5t-19 58t-45.5 24zM600 365q-7 4 -22.5 8.5t-27.5 6.5l-12 2q-29 -31 -42 -31q-5 0 -15.5 8t-18.5 15l-8 8q-46 -7 -62 -17q-7 -5 -12.5 -21t-7.5 -29l-3 -14h255q-5 52 -24 64zM188 568q0 -6 -4.5 -10t-10.5 -4h-30q-6 0 -10 4t-4 10
t4 10t10 4h30q6 0 10.5 -4t4.5 -10zM143 469h30q6 0 10.5 -4t4.5 -10t-4.5 -10t-10.5 -4h-30q-6 0 -10 4t-4 10t4 10t10 4zM143 356h30q6 0 10.5 -4t4.5 -10t-4.5 -10t-10.5 -4h-30q-6 0 -10 4t-4 10t4 10t10 4zM143 243h30q6 0 10.5 -4.5t4.5 -10t-4.5 -10t-10.5 -4.5h-30
q-6 0 -10 4.5t-4 10t4 10t10 4.5zM143 130h30q6 0 10.5 -4.5t4.5 -10.5t-4.5 -10t-10.5 -4h-30q-6 0 -10 4.5t-4 10t4 10t10 4.5z" />
    <glyph glyph-name="uniE61B" unicode="&#xe61b;" 
d="M871 520l-360 246l-360 -246l360 -247zM511 218l-318 210l-42 -44l360 -246l360 246l-42 45zM511 83l-318 209l-42 -44l360 -246l360 246l-42 45z" />
    <glyph glyph-name="uniE61C" unicode="&#xe61c;" 
d="M875 170l-316 506q-20 19 -48 19t-48 -19l-317 -506q-19 -19 -19 -45t19 -45h729q20 19 20 45t-20 45zM482 494q0 15 11 25.5t26.5 10.5t26.5 -10.5t11 -25.5v-165q0 -15 -11 -25t-26.5 -10t-26.5 10t-11 25v165zM519.5 175q-15.5 0 -26.5 10.5t-11 25t11 25t26.5 10.5
t27 -10.5t11.5 -25t-11.5 -25t-27 -10.5z" />
    <glyph glyph-name="uniE61D" unicode="&#xe61d;" 
d="M783 2h-541q-25 0 -42.5 14.5t-17.5 34.5v594q0 21 17.5 35.5t42.5 14.5h150v-52h-120q-12 0 -21 -7t-9 -17v-543q0 -10 9 -17.5t21 -7.5h480q13 0 22 7.5t9 17.5v543q0 10 -9 17t-22 7h-120v52h151q24 0 42 -14.5t18 -35.5v-594q0 -20 -18 -34.5t-42 -14.5zM392 496h330
v-25h-330v25zM392 422h330v-25h-330v25zM392 348h330v-25h-330v25zM392 274h330v-24h-330v24zM722 102h-330v24h330v-24zM392 200h330v-24h-330v24zM302 496h30v-24h-30v24zM302 422h30v-24h-30v24zM302 349h30v-25h-30v25zM302 275h30v-25h-30v25zM332 102h-30v25h30v-25z
M302 201h30v-25h-30v25zM692 617q13 0 21.5 -7t8.5 -17v-48h-420v48q0 10 9 17t21 7h90q1 35 1 75q0 32 26 54.5t63.5 22.5t64 -23.5t26.5 -53.5l-1 -75h90zM512.5 695q-12.5 0 -21.5 -7.5t-9 -17.5t9 -17.5t21.5 -7.5t21 7.5t8.5 17.5t-8.5 17.5t-21 7.5z" />
    <glyph glyph-name="uniE61E" unicode="&#xe61e;" 
d="M897 671h-755l341 -285zM128 594v-499h767v505l-412 -361z" />
    <glyph glyph-name="uniE61F" unicode="&#xe61f;" 
d="M225 384.5q0 119.5 84.5 204t204 84.5t203.5 -84.5t84 -204t-84 -203.5t-203.5 -84t-204 84t-84.5 203.5zM129 384.5q0 -104.5 51.5 -193t140 -139.5t193 -51t193 51t139.5 139.5t51 193t-51 193t-139.5 140t-193 51.5t-193 -51.5t-140 -140t-51.5 -193zM488 564v-154
v-51h51h102v51h-102v154h-51z" />
    <glyph glyph-name="uniE620" unicode="&#xe620;" 
d="M512 685l-63 -2q-107 -8 -195.5 -65t-140 -150t-51.5 -201q0 -113 55.5 -209.5t152 -152t209.5 -55.5q108 0 201 51.5t150 140t65 195.5l2 63h-385v385zM833 236q-12 -143 -112.5 -234t-241.5 -91q-97 0 -179 48t-129.5 130t-47.5 178q0 141 91 242t234 112v-385h385z
M544 747v-415h414q0 82 -33.5 159t-89 133t-132.5 89.5t-159 33.5zM608 680q31 -4 74 -23q62 -26 112 -76t76 -110q17 -41 22 -75h-284v284z" />
    <glyph glyph-name="uniE621" unicode="&#xe621;" 
d="M704 832h-540q-31 0 -52.5 -21.5t-21.5 -52.5v-749q0 -31 21.5 -52.5t52.5 -21.5h696q31 0 52.5 21.5t21.5 52.5v601zM868 621h-145v145zM894 14q0 -14 -12.5 -26.5t-26.5 -12.5l-691 -2q-14 0 -24 13t-10 28v739q0 14 12.5 26.5t26.5 12.5h514v-211h211v-567zM749 423
v40h-487v-40h487zM749 278v40h-487v-40h487zM749 146v40h-487v-40h487z" />
    <glyph glyph-name="uniE622" unicode="&#xe622;" 
d="M954 163v257q0 51 -35 89.5t-86 43.5v-255q0 -80 -56.5 -136.5t-136.5 -56.5h-299q-28 -26 -60 -47q37 -29 84 -29h322q89 -90 189 -100q46 -5 53 9q2 3 -3 7q-56 42 -72 89q44 11 72 47t28 82zM773 298v257q0 56 -39 95t-94 39h-456q-55 0 -94 -39t-39 -95v-257
q0 -46 28 -81.5t71 -47.5q-16 -47 -71 -89q-12 -9 9 -14q10 -3 24 -3q42 0 97 24t108 78h323q55 0 94 39t39 94z" />
    <glyph glyph-name="uniE623" unicode="&#xe623;" 
d="M516 403h-5l-8 3l-414 184q-18 8 -18 26.5t18 26.5l416 188l8 1q7 0 13 -3l410 -185q18 -8 18 -26.5t-18 -25.5l-412 -189h-8zM152 617l364 -162l358 163l-361 162zM516 -59q-7 0 -13 3l-416 185q-18 8 -18 26.5t17 26.5l77 35l80 37q10 5 20.5 1.5t15 -12.5t1 -19
t-12.5 -14l-117 -54l366 -163l360 165l-37 16l-76 36q-10 4 -13.5 14t1.5 19t15 12.5t20 -1.5l76 -35l77 -35q17 -8 17 -26t-17 -26l-409 -188q-7 -3 -14 -3zM516 166q-7 0 -13 3l-416 185q-18 8 -18 26.5t17 26.5l77 35l79 38q10 5 20 1.5t15 -12.5t2 -18.5t-13 -14.5
l-116 -55l366 -163l360 165l-37 16l-75 37q-10 5 -13 14.5t2 18.5t15 12.5t20 -1.5l75 -36l76 -35q17 -7 17 -25.5t-17 -26.5l-409 -188q-7 -3 -14 -3z" />
    <glyph glyph-name="uniE624" unicode="&#xe624;" 
d="M77 -67q-14 -14 -14 -33t13.5 -32.5t32.5 -13.5t32 14l396 401q13 13 13 32t-13 33l-396 401q-13 14 -32 14t-32.5 -13.5t-13.5 -33t14 -32.5l350 -369zM801 -91q0 -27 -14 -41.5t-35 -14.5q-22 0 -36 14.5t-14 41.5v784q0 27 14 40.5t36 13.5t35.5 -13.5t13.5 -40.5
v-784z" />
    <glyph glyph-name="uniE625" unicode="&#xe625;" 
d="M788 -67l-350 369l350 368q14 14 14 33t-13.5 32.5t-32.5 13.5t-32 -14l-396 -401q-13 -13 -13 -32t13 -33l396 -401q13 -13 32 -13t32.5 13t13.5 32.5t-14 32.5zM64 693q0 28 13.5 41.5t35.5 13.5t36 -13.5t14 -41.5v-783q0 -28 -14 -42.5t-36 -14.5q-21 0 -35 14.5
t-14 42.5v783z" />
    <glyph glyph-name="uniE626" unicode="&#xe626;" 
d="M718 -52l-351 355l348 352q11 11 11 27t-11 27t-26.5 11t-26.5 -11l-366 -371q-11 -10 -11 -25q-12 -25 7 -44l372 -376q11 -12 27 -12t27 11.5t11 27.5t-11 28zM718 -52z" />
    <glyph glyph-name="uniE627" unicode="&#xe627;" 
d="M296 -163q-10 11 -29.5 31t-29.5 29q67 65 199.5 193.5t197.5 192.5q-137 135 -397 386q9 11 29 30.5t29 29.5q91 -87 264 -255t196 -191q-208 -202 -459 -446z" />
    <glyph glyph-name="uniE628" unicode="&#xe628;" 
d="M736 80h-448q-10 0 -16.5 -6.5t-6.5 -16t6.5 -16t16.5 -6.5h448q10 0 16.5 6.5t6.5 16t-6.5 16t-16.5 6.5zM265 383q0 -9 6.5 -16t16.5 -7h448q10 0 16.5 7t6.5 16t-6.5 16t-16.5 7h-448q-10 0 -16.5 -7t-6.5 -16zM940 512l-280 278q-11 12 -27 12h-457q-43 0 -72 -30
q-31 -34 -31 -74v-796q0 -44 31 -73q30 -31 71 -31h672q42 0 71 30v1q31 29 31 73v582q3 13 -9 28zM656 686l178 -178h-137q-16 0 -29 12v1q-12 9 -12 28v137zM874 -98q0 -12 -8 -18q-7 -7 -18 -7h-672q-11 0 -18 7q-8 8 -8 18v796q0 12 8 18q8 8 18 8h434v-176
q0 -35 24 -60l1 -1q26 -27 61 -27h177v-558h1zM736 243h-448q-10 0 -16.5 -6.5t-6.5 -16t6.5 -16t16.5 -6.5h448q10 0 16.5 6.5t6.5 16t-6.5 16t-16.5 6.5z" />
  </font>
</defs>
</svg>
